<svg width="230" height="60" viewBox="0 0 230 60" fill="none" xmlns="http://www.w3.org/2000/svg">
<rect width="60" height="60" rx="5" fill="#2CB1BC"/>
<path d="M30.252 32.877H23.7305V28.7637H30.252C31.2598 28.7637 32.0801 28.5996 32.7129 28.2715C33.3457 27.9316 33.8086 27.4629 34.1016 26.8652C34.3945 26.2676 34.541 25.5938 34.541 24.8438C34.541 24.082 34.3945 23.373 34.1016 22.7168C33.8086 22.0605 33.3457 21.5332 32.7129 21.1348C32.0801 20.7363 31.2598 20.5371 30.252 20.5371H25.5586V42H20.2852V16.4062H30.252C32.2559 16.4062 33.9727 16.7695 35.4023 17.4961C36.8438 18.2109 37.9453 19.2012 38.707 20.4668C39.4688 21.7324 39.8496 23.1797 39.8496 24.8086C39.8496 26.4609 39.4688 27.8906 38.707 29.0977C37.9453 30.3047 36.8438 31.2363 35.4023 31.8926C33.9727 32.5488 32.2559 32.877 30.252 32.877Z" fill="white"/>
<path d="M87.5293 32.4043H82.457V29.2051H87.5293C88.3132 29.2051 88.9512 29.0775 89.4434 28.8223C89.9355 28.5579 90.2956 28.1934 90.5234 27.7285C90.7513 27.2637 90.8652 26.7396 90.8652 26.1562C90.8652 25.5638 90.7513 25.0124 90.5234 24.502C90.2956 23.9915 89.9355 23.5814 89.4434 23.2715C88.9512 22.9616 88.3132 22.8066 87.5293 22.8066H83.8789V39.5H79.7773V19.5938H87.5293C89.0879 19.5938 90.4232 19.8763 91.5352 20.4414C92.6562 20.9974 93.513 21.7676 94.1055 22.752C94.6979 23.7363 94.9941 24.862 94.9941 26.1289C94.9941 27.4141 94.6979 28.526 94.1055 29.4648C93.513 30.4036 92.6562 31.1283 91.5352 31.6387C90.4232 32.1491 89.0879 32.4043 87.5293 32.4043ZM104.387 39.7734C103.238 39.7734 102.208 39.5911 101.297 39.2266C100.385 38.8529 99.6107 38.3379 98.9727 37.6816C98.3438 37.0254 97.8607 36.2643 97.5234 35.3984C97.1862 34.5234 97.0176 33.5938 97.0176 32.6094V32.0625C97.0176 30.9414 97.1771 29.916 97.4961 28.9863C97.8151 28.0566 98.2708 27.25 98.8633 26.5664C99.4648 25.8828 100.194 25.3587 101.051 24.9941C101.908 24.6204 102.874 24.4336 103.949 24.4336C104.997 24.4336 105.927 24.6068 106.738 24.9531C107.549 25.2995 108.229 25.7917 108.775 26.4297C109.331 27.0677 109.751 27.8333 110.033 28.7266C110.316 29.6107 110.457 30.5951 110.457 31.6797V33.3203H98.6992V30.6953H106.588V30.3945C106.588 29.8477 106.488 29.36 106.287 28.9316C106.096 28.4941 105.804 28.1478 105.412 27.8926C105.02 27.6374 104.519 27.5098 103.908 27.5098C103.389 27.5098 102.942 27.6237 102.568 27.8516C102.195 28.0794 101.889 28.3984 101.652 28.8086C101.424 29.2188 101.251 29.7018 101.133 30.2578C101.023 30.8047 100.969 31.4062 100.969 32.0625V32.6094C100.969 33.2018 101.051 33.7487 101.215 34.25C101.388 34.7513 101.63 35.1842 101.939 35.5488C102.258 35.9134 102.641 36.196 103.088 36.3965C103.544 36.597 104.059 36.6973 104.633 36.6973C105.344 36.6973 106.005 36.5605 106.615 36.2871C107.235 36.0046 107.768 35.5807 108.215 35.0156L110.129 37.0938C109.819 37.5404 109.395 37.9688 108.857 38.3789C108.329 38.7891 107.691 39.1263 106.943 39.3906C106.196 39.6458 105.344 39.7734 104.387 39.7734ZM124.471 36.4238V39.5H113.232V36.4238H124.471ZM124.252 26.9766L114.818 39.5H112.18V37.1621L121.572 24.707H124.252V26.9766ZM122.857 24.707V27.7969H112.398V24.707H122.857ZM134.93 36.1641V29.5742C134.93 29.1003 134.852 28.6947 134.697 28.3574C134.542 28.0111 134.301 27.7422 133.973 27.5508C133.654 27.3594 133.239 27.2637 132.729 27.2637C132.291 27.2637 131.913 27.3411 131.594 27.4961C131.275 27.6419 131.029 27.8561 130.855 28.1387C130.682 28.4121 130.596 28.7357 130.596 29.1094H126.658C126.658 28.4805 126.804 27.8835 127.096 27.3184C127.387 26.7533 127.811 26.2565 128.367 25.8281C128.923 25.3906 129.584 25.0488 130.35 24.8027C131.124 24.5566 131.99 24.4336 132.947 24.4336C134.096 24.4336 135.117 24.625 136.01 25.0078C136.903 25.3906 137.605 25.9648 138.115 26.7305C138.635 27.4961 138.895 28.4531 138.895 29.6016V35.9316C138.895 36.7428 138.945 37.4082 139.045 37.9277C139.145 38.4382 139.291 38.8848 139.482 39.2676V39.5H135.504C135.312 39.099 135.167 38.5977 135.066 37.9961C134.975 37.3854 134.93 36.7747 134.93 36.1641ZM135.449 30.4902L135.477 32.7188H133.275C132.756 32.7188 132.305 32.778 131.922 32.8965C131.539 33.015 131.225 33.1836 130.979 33.4023C130.732 33.612 130.55 33.8581 130.432 34.1406C130.322 34.4232 130.268 34.7331 130.268 35.0703C130.268 35.4076 130.345 35.7129 130.5 35.9863C130.655 36.2507 130.878 36.4603 131.17 36.6152C131.462 36.7611 131.803 36.834 132.195 36.834C132.788 36.834 133.303 36.7155 133.74 36.4785C134.178 36.2415 134.515 35.9499 134.752 35.6035C134.998 35.2572 135.126 34.929 135.135 34.6191L136.174 36.2871C136.028 36.6608 135.827 37.0482 135.572 37.4492C135.326 37.8503 135.012 38.2285 134.629 38.584C134.246 38.9303 133.786 39.2174 133.248 39.4453C132.71 39.6641 132.072 39.7734 131.334 39.7734C130.395 39.7734 129.543 39.5866 128.777 39.2129C128.021 38.8301 127.419 38.306 126.973 37.6406C126.535 36.9661 126.316 36.2005 126.316 35.3438C126.316 34.569 126.462 33.8809 126.754 33.2793C127.046 32.6777 127.474 32.1719 128.039 31.7617C128.613 31.3424 129.329 31.028 130.186 30.8184C131.042 30.5996 132.036 30.4902 133.166 30.4902H135.449ZM165.35 19.5938V39.5H161.248L153.25 26.1562V39.5H149.148V19.5938H153.25L161.262 32.9512V19.5938H165.35ZM174.783 36.6973C175.266 36.6973 175.695 36.6061 176.068 36.4238C176.442 36.2324 176.734 35.9681 176.943 35.6309C177.162 35.2845 177.276 34.8789 177.285 34.4141H180.99C180.981 35.4531 180.703 36.3783 180.156 37.1895C179.609 37.9915 178.876 38.625 177.955 39.0898C177.035 39.5456 176.005 39.7734 174.865 39.7734C173.717 39.7734 172.714 39.582 171.857 39.1992C171.01 38.8164 170.303 38.2878 169.738 37.6133C169.173 36.9297 168.749 36.1367 168.467 35.2344C168.184 34.3229 168.043 33.3477 168.043 32.3086V31.9121C168.043 30.8639 168.184 29.8887 168.467 28.9863C168.749 28.0749 169.173 27.2819 169.738 26.6074C170.303 25.9238 171.01 25.3906 171.857 25.0078C172.705 24.625 173.699 24.4336 174.838 24.4336C176.05 24.4336 177.112 24.666 178.023 25.1309C178.944 25.5957 179.664 26.2611 180.184 27.127C180.712 27.9837 180.981 29 180.99 30.1758H177.285C177.276 29.6836 177.171 29.237 176.971 28.8359C176.779 28.4349 176.497 28.1159 176.123 27.8789C175.758 27.6328 175.307 27.5098 174.77 27.5098C174.195 27.5098 173.726 27.6328 173.361 27.8789C172.997 28.1159 172.714 28.444 172.514 28.8633C172.313 29.2734 172.172 29.7428 172.09 30.2715C172.017 30.791 171.98 31.3379 171.98 31.9121V32.3086C171.98 32.8828 172.017 33.4342 172.09 33.9629C172.163 34.4915 172.299 34.9609 172.5 35.3711C172.71 35.7812 172.997 36.1048 173.361 36.3418C173.726 36.5788 174.2 36.6973 174.783 36.6973ZM187.115 18.5V39.5H183.178V18.5H187.115ZM186.555 31.584H185.475C185.484 30.554 185.62 29.6061 185.885 28.7402C186.149 27.8652 186.527 27.1087 187.02 26.4707C187.512 25.8236 188.1 25.3223 188.783 24.9668C189.476 24.6113 190.242 24.4336 191.08 24.4336C191.809 24.4336 192.47 24.5384 193.062 24.748C193.664 24.9486 194.179 25.2767 194.607 25.7324C195.045 26.179 195.382 26.7669 195.619 27.4961C195.856 28.2253 195.975 29.1094 195.975 30.1484V39.5H192.01V30.1211C192.01 29.4648 191.914 28.9499 191.723 28.5762C191.54 28.1934 191.271 27.9245 190.916 27.7695C190.57 27.6055 190.141 27.5234 189.631 27.5234C189.066 27.5234 188.583 27.6283 188.182 27.8379C187.79 28.0475 187.475 28.3392 187.238 28.7129C187.001 29.0775 186.828 29.5059 186.719 29.998C186.609 30.4902 186.555 31.0189 186.555 31.584ZM203.125 24.707V39.5H199.174V24.707H203.125ZM198.928 20.8516C198.928 20.2773 199.128 19.8034 199.529 19.4297C199.93 19.056 200.468 18.8691 201.143 18.8691C201.808 18.8691 202.341 19.056 202.742 19.4297C203.152 19.8034 203.357 20.2773 203.357 20.8516C203.357 21.4258 203.152 21.8997 202.742 22.2734C202.341 22.6471 201.808 22.834 201.143 22.834C200.468 22.834 199.93 22.6471 199.529 22.2734C199.128 21.8997 198.928 21.4258 198.928 20.8516ZM213.625 24.707V27.4961H205.012V24.707H213.625ZM207.145 21.0566H211.082V35.043C211.082 35.4714 211.137 35.7995 211.246 36.0273C211.365 36.2552 211.538 36.4147 211.766 36.5059C211.993 36.5879 212.281 36.6289 212.627 36.6289C212.873 36.6289 213.092 36.6198 213.283 36.6016C213.484 36.5742 213.652 36.5469 213.789 36.5195L213.803 39.418C213.465 39.5273 213.101 39.6139 212.709 39.6777C212.317 39.7415 211.884 39.7734 211.41 39.7734C210.544 39.7734 209.788 39.6322 209.141 39.3496C208.503 39.0579 208.01 38.5931 207.664 37.9551C207.318 37.3171 207.145 36.4785 207.145 35.4395V21.0566ZM214.883 32.2539V31.9668C214.883 30.8822 215.038 29.8841 215.348 28.9727C215.658 28.0521 216.109 27.2546 216.701 26.5801C217.294 25.9056 218.023 25.3815 218.889 25.0078C219.755 24.625 220.748 24.4336 221.869 24.4336C222.99 24.4336 223.988 24.625 224.863 25.0078C225.738 25.3815 226.472 25.9056 227.064 26.5801C227.666 27.2546 228.122 28.0521 228.432 28.9727C228.742 29.8841 228.896 30.8822 228.896 31.9668V32.2539C228.896 33.3294 228.742 34.3275 228.432 35.248C228.122 36.1595 227.666 36.957 227.064 37.6406C226.472 38.3151 225.743 38.8392 224.877 39.2129C224.011 39.5866 223.018 39.7734 221.896 39.7734C220.775 39.7734 219.777 39.5866 218.902 39.2129C218.036 38.8392 217.303 38.3151 216.701 37.6406C216.109 36.957 215.658 36.1595 215.348 35.248C215.038 34.3275 214.883 33.3294 214.883 32.2539ZM218.82 31.9668V32.2539C218.82 32.8737 218.875 33.4525 218.984 33.9902C219.094 34.528 219.267 35.002 219.504 35.4121C219.75 35.8132 220.069 36.1276 220.461 36.3555C220.853 36.5833 221.331 36.6973 221.896 36.6973C222.443 36.6973 222.913 36.5833 223.305 36.3555C223.697 36.1276 224.011 35.8132 224.248 35.4121C224.485 35.002 224.658 34.528 224.768 33.9902C224.886 33.4525 224.945 32.8737 224.945 32.2539V31.9668C224.945 31.3652 224.886 30.8001 224.768 30.2715C224.658 29.7337 224.48 29.2598 224.234 28.8496C223.997 28.4303 223.683 28.1022 223.291 27.8652C222.899 27.6283 222.425 27.5098 221.869 27.5098C221.313 27.5098 220.839 27.6283 220.447 27.8652C220.064 28.1022 219.75 28.4303 219.504 28.8496C219.267 29.2598 219.094 29.7337 218.984 30.2715C218.875 30.8001 218.82 31.3652 218.82 31.9668Z" fill="#2CB1BC"/>
</svg>
